<svg xmlns="http://www.w3.org/2000/svg" viewBox="24 644.25 854.415 236.262"><title>devart.</title><g id="devart.__x2014__Outfit_Medium__x2F__tracking_-80">
	<g>
		<path fill="#F1F1EE" d="M98.7622,880.5117c-14.0283,0-26.7007-3.5596-38.0283-10.6807c-11.3276-7.1201-20.2837-16.7734-26.8628-28.9658
			C27.2866,828.6777,24,815.0293,24,799.9238c0-15.3174,3.2866-29.0723,9.8711-41.2646
			c6.5791-12.1875,15.5352-21.8965,26.8628-29.1279c11.3276-7.2266,24-10.8428,38.0283-10.8428
			c9.9219,0,18.9331,1.8359,27.0244,5.502c8.0913,3.6719,14.9385,8.6328,20.5513,14.8877V644.25h35.6011v233.0254h-35.6011v-16.8301
			c-5.6128,6.2607-12.46,11.166-20.5513,14.7266C117.6953,878.7314,108.6841,880.5117,98.7622,880.5117z M104.5879,846.8525
			c13.1582,0,23.7881-4.4199,31.8789-13.2695c8.0913-8.8447,12.1367-20.1719,12.1367-33.9824
			c0-14.0234-4.0454-25.4062-12.1367-34.1445c-8.0908-8.7393-18.7207-13.1084-31.8789-13.1084
			c-12.9458,0-23.52,4.3691-31.7173,13.1084c-8.2026,8.7383-12.2988,20.1211-12.2988,34.1445
			c0,13.8105,4.0962,25.1377,12.2988,33.9824C81.0679,842.4326,91.6421,846.8525,104.5879,846.8525z"/>
		<path fill="#F1F1EE" d="M267.7012,880.5117c-15.5352,0-29.5073-3.5039-41.9121-10.5186c-12.4097-7.0088-22.2256-16.668-29.4517-28.9658
			c-7.2319-12.2988-10.8423-26.1045-10.8423-41.4268c0-15.3174,3.5601-29.0732,10.6802-41.2656
			c7.1201-12.1865,16.7739-21.8457,28.9663-28.9658c12.1875-7.1201,25.73-10.6807,40.6177-10.6807
			c14.4526,0,27.2368,3.3477,38.3521,10.0332c11.1104,6.6904,19.8486,15.8584,26.2153,27.5098
			c6.3618,11.6514,9.5479,24.9209,9.5479,39.8086c0,4.749-0.6475,10.3564-1.9419,16.8301H222.0669
			c2.5894,10.5742,7.874,18.9326,15.8589,25.082c7.98,6.1494,17.8003,9.2246,29.4517,9.2246c7.98,0,15.373-1.4014,22.1699-4.208
			c6.7964-2.8018,12.5664-6.9023,17.3149-12.2988l22.6553,22.9795c-7.5552,8.8496-16.7231,15.5352-27.5098,20.0654
			C291.2163,878.2461,279.7822,880.5117,267.7012,880.5117z M265.1118,751.377c-11.0039,0-20.2832,2.8623-27.8335,8.5771
			c-7.5552,5.7188-12.6221,13.6484-15.2114,23.7871h82.8535C300.3896,762.1689,287.1201,751.377,265.1118,751.377z"/>
		<path fill="#F1F1EE" d="M392.3047,877.2754l-70.8779-155.3506h39.4849l42.397,99.3594l42.7227-99.3594h37.8652l-70.877,155.3506H392.3047z"/>
		<path fill="#F1F1EE" d="M538.918,880.5117c-14.0273,0-26.7002-3.5596-38.0283-10.6807c-11.3271-7.1201-20.2832-16.7734-26.8623-28.9658
			c-6.584-12.1875-9.8711-25.8359-9.8711-40.9414c0-15.3174,3.2871-29.0723,9.8711-41.2646
			c6.5791-12.1875,15.5352-21.8965,26.8623-29.1279c11.3281-7.2266,24.001-10.8428,38.0283-10.8428
			c9.9219,0,18.9336,1.8359,27.0244,5.502c8.0918,3.6719,14.9385,8.6328,20.5518,14.8877v-17.1533h35.6016v155.3506h-35.6016
			v-16.8301c-5.6133,6.2607-12.46,11.166-20.5518,14.7266C557.8516,878.7314,548.8398,880.5117,538.918,880.5117z
			 M544.7441,846.8525c13.1582,0,23.7881-4.4199,31.8789-13.2695c8.0908-8.8447,12.1367-20.1719,12.1367-33.9824
			c0-14.0234-4.0459-25.4062-12.1367-34.1445c-8.0908-8.7393-18.7207-13.1084-31.8789-13.1084
			c-12.9463,0-23.5205,4.3691-31.7178,13.1084c-8.2021,8.7383-12.2979,20.1211-12.2979,34.1445
			c0,13.8105,4.0957,25.1377,12.2979,33.9824C521.2236,842.4326,531.7979,846.8525,544.7441,846.8525z"/>
		<path fill="#F1F1EE" d="M635.6836,877.2754V721.9248h35.6016v16.1826c4.3135-6.0381,9.8711-10.7861,16.668-14.2402
			c6.7959-3.4492,14.7256-5.1787,23.7871-5.1787c15.3184,0,28.1572,5.9375,38.5146,17.8008l-23.3027,23.9502
			c-5.6133-5.6084-12.7334-8.415-21.3604-8.415c-9.9268,0-18.125,3.1299-24.5977,9.3857c-6.4727,6.2607-9.709,16.0762-9.709,29.4521
			v86.4131H635.6836z"/>
		<path fill="#F1F1EE" d="M765.7881,877.2754V754.29h-37.2188v-32.3652h37.2188v-64.7285h35.6016v64.7285h37.2197V754.29h-37.2197v122.9854
			H765.7881z"/>
		<path fill="#C88E9C" d="M854.7891,880.5117c-6.9082,0-12.5713-2.3213-16.9912-6.958c-4.4248-4.6377-6.6348-10.3018-6.6348-16.9912
			c0-6.9033,2.21-12.623,6.6348-17.1533c4.4199-4.5312,10.083-6.7969,16.9912-6.7969c6.9023,0,12.5664,2.2656,16.9912,6.7969
			c4.4199,4.5303,6.6348,10.25,6.6348,17.1533c0,6.6895-2.2148,12.3535-6.6348,16.9912
			C867.3555,878.1904,861.6914,880.5117,854.7891,880.5117z"/>
	</g>
</g>
</svg>
